<svg width="62" height="10" viewBox="0 0 62 10" fill="none" xmlns="http://www.w3.org/2000/svg">
<path d="M5 0L6.12257 3.45492H9.75528L6.81636 5.59017L7.93893 9.04508L5 6.90983L2.06107 9.04508L3.18364 5.59017L0.244718 3.45492H3.87743L5 0Z" fill="#D9D9D9"/>
<path d="M18 0L19.1226 3.45492H22.7553L19.8164 5.59017L20.9389 9.04508L18 6.90983L15.0611 9.04508L16.1836 5.59017L13.2447 3.45492H16.8774L18 0Z" fill="#D9D9D9"/>
<path d="M31 0L32.1226 3.45492H35.7553L32.8164 5.59017L33.9389 9.04508L31 6.90983L28.0611 9.04508L29.1836 5.59017L26.2447 3.45492H29.8774L31 0Z" fill="#D9D9D9"/>
<path d="M44 0L45.1226 3.45492H48.7553L45.8164 5.59017L46.9389 9.04508L44 6.90983L41.0611 9.04508L42.1836 5.59017L39.2447 3.45492H42.8774L44 0Z" fill="#D9D9D9"/>
<path d="M57 0L58.1226 3.45492H61.7553L58.8164 5.59017L59.9389 9.04508L57 6.90983L54.0611 9.04508L55.1836 5.59017L52.2447 3.45492H55.8774L57 0Z" fill="#D9D9D9"/>
</svg>
