<?xml version="1.0" encoding="utf-8"?>
<!-- Generator: Adobe Illustrator 25.0.1, SVG Export Plug-In . SVG Version: 6.00 Build 0)  -->
<svg version="1.1" id="Camada_1" xmlns="http://www.w3.org/2000/svg" xmlns:xlink="http://www.w3.org/1999/xlink" x="0px" y="0px"
	 viewBox="0 0 500 500" style="enable-background:new 0 0 500 500;" xml:space="preserve">
<style type="text/css">
	.st0{fill:#123A5F;}
	.st1{fill:#145593;}
	.st2{fill:#D2D700;}
	.st3{fill:#0B5690;}
	.st4{fill:#D2D528;}
</style>
<g id="Camada_1_1_">
	<rect x="-1" class="st0" width="501" height="501"/>
	<path class="st1" d="M119.7,376.9c44.3,45.3,110.8,68.9,181.8,53.4C376.4,414,434,353.8,448,278.5c6.5-35.4,3.4-69.6-7.2-100.2
		l59.2,78.5V500H216"/>
	<path class="st2" d="M425.9,146.6c-33.7-56.9-95.7-95-166.6-95c-106.8,0-193.5,86.6-193.5,193.5c0,50.4,19.3,96.4,50.9,130.8
		c35.4,38.5,86.1,62.7,142.5,62.7c106.8,0,193.5-86.6,193.5-193.5C452.8,209.1,443,175.5,425.9,146.6z"/>
	<path class="st3" d="M111.9,215.3c-1.4,8.6-2.1,17.3-2.5,26.2c-0.1,1.4-0.2,2.7-0.5,4.1c-0.7,2.9-3.2,5-6.1,5.2
		c-3,0.2-6-1.3-6.8-4.2c-0.7-2.7-1-5.5-0.9-8.3c2-53.5,23.9-97,66.7-129.1c33.2-24.9,71-35.3,112.3-31.6
		c36.4,3.2,68.3,17.3,95.6,41.7c1.2,1.1,2.4,2.4,3.3,3.8c2.2,3.1,1.5,7.3-1.6,9.5c-2,1.4-4.7,1.7-6.9,0.6c-1.2-0.6-2.3-1.3-3.2-2.2
		c-22.2-20.3-48.1-33.1-77.7-37.8c-41.2-6.5-78.9,2.6-112.8,27.1c-24.8,18-42.3,41.6-52.6,70.4C115.3,198.8,113.3,206.9,111.9,215.3
		z"/>
	<path class="st3" d="M425,266.4c-8.1,57.8-37.3,101.2-89.2,128.5c-32.8,17.3-68,21.8-104.5,15.1c-34.3-6.3-63.5-22.1-87.9-47
		c-1.6-1.5-2.9-3.3-4-5.3c-1.6-3.6-0.3-7.9,3.1-9.9c3.3-2.1,7.6-1.5,10.1,1.4c17.1,19.6,38.5,32.8,63.1,40.4
		c43.3,13.5,84.9,8.7,123.6-15c33.8-20.8,55.8-50.9,66-89.3c5.5-20.6,6.3-42.1,2.5-63.1c-0.8-3.7,1.3-7.5,5-8.6
		c3.6-1.3,7.7,0.1,9.6,3.5c0.7,1.3,1.2,2.7,1.5,4.1C426.3,236.2,426.7,251.3,425,266.4z"/>
</g>
<g id="Camada_2_1_">
	<path class="st3" d="M126.6,270.2v48c0,0,0.1,2.9,6.3,2.7c0,0,6.2,0.8,8-2.9v-23.2c0,0-0.9-10.4,11.2-12.8l53.8-0.2
		c0,0,10.9-0.6,14.3-9.5c0.7-1.9,1.2-4,1.3-6c0.3-4.8-1-9.8-4.4-13.3c-1.8-1.9-4-3.3-6.5-4c-3.4-1.1-7.6-0.6-11.2-0.6
		c-4,0-8.5-0.5-12.3,0.7c-9,3-15.5,10.5-17.5,19.7c-2.3,10.4,1.7,22.2,10.2,28.8c8.3,6.4,18.9,4.7,28.8,4.7c6.1,0,12.3,0,18.4,0
		c0,0,2.2,10.7,19.7,12s29.5-0.4,35.1-18v-14.4l52.3-0.1c0,0,18.6-1.2,14.7-21.1c0,0-1.6-11-13.6-12.7s-33.1-0.6-37.6,20.9
		c0,0-5.8,27.5,20.6,32.7l62.6,0.3v-13L321,289c0,0-13.9-0.7-9.3-20.1c0,0,0.8-11.1,18.9-8.4c0,0,4.9,0.3,4.7,6.1
		c0,0,0.1,1.8-3.3,2.6h-50.7l0.2-32.5h-13.3l-0.1,32.5l-21.2,0.1c0,0-19.9,0.7-21.7,19.8c0,0.3-18.8-0.1-20.2-0.1
		c-3.8,0-7.5,0.1-11.3,0c-5.4-0.2-10.9-5.7-10.4-11.3c0,0-3.1-16.7,11.9-17.1c0,0,13.2-1.6,12.4,5c0,0-0.4,3.3-3.8,3.3
		c-3.4,0-49.2,0-49.2,0s-10.4-0.4-14.1,6.5l-0.2-4.9L126.6,270.2z"/>
	<path class="st4" d="M267.1,281.9c0,0,0,8.8,0,9.4c0,0.8,0,1.6,0,2.4c0,4.3-4.1,7.6-8.2,7.7c-1,0-1.9,0.1-2.9,0.1
		c-3.3,0-6.6-0.1-9.9-0.3c-0.9,0-1.8,0-2.7-0.1c-1.3-0.2-2.6-1.4-3.5-2.3c-1.1-1.1-1.9-2.4-2.4-3.8c-0.7-2.4-0.3-5,0.5-7.3
		c0.4-1.2,1.3-2.3,2.1-3.3c0.7-0.8,1.6-1.6,2.6-2.1c1.2-0.6,2.6-0.5,4-0.5c4.1,0,8.3,0,12.4,0C261.9,281.9,264.5,281.9,267.1,281.9z
		"/>
</g>
<g id="Camada_4">
	<path class="st3" d="M300.7,221.5l5.5,13.3l-23.6-13.3l-53.6-0.3c0,0-10-0.6-11.4-11.9v-44.1c0,0,1.1-11.1,13.4-11.1h109.6
		c0,0,9.6-0.2,11.9,11.3v45c0,0-2.4,11-12.5,10.7h-39.5L300.7,221.5z"/>
	<path class="st2" d="M280.3,168.7c0,0-6.1,11.6-6.8,38.6c0,0,0.4,4.6-0.9,6c-1.4,1.4-2.8,2.2-5.5,0.7c0,0-7.8-5.3-13.6-24.5
		c0,0-8.4,17.6-10.8,20.6c-2.3,3-3.7,5.1-6.4,4.5c0,0-1.2,0.1-2.4-2.7s-6.6-21.4-9.6-43.2c0,0,0-5.3,6.2-4.8c0,0,2.8,0.3,3.2,5
		c0,0,4.3,25.4,5.6,28l12.1-23.4c0,0,2.2-3.7,5.3-2.6c0,0,2.2-0.5,3.3,5.4c0,0,3.3,15.2,5,17.7c0,0,1.4-20.5,7.6-30.5
		c0,0,2.3-3.6,6.8-0.7C279.4,162.8,282.4,164.6,280.3,168.7z"/>
	<path class="st2" d="M294.3,167.9c0,0-8.9,0.3-13.1,15.3c0,0-5.8,20,9.3,25.2c0,0,9.3,3.2,16-6.4c0,0,8.4-11.7,3.9-24.9
		C310.4,177.1,307,165.6,294.3,167.9z"/>
	<path class="st2" d="M328.6,167.9c0,0-8.9,0.3-13.1,15.3c0,0-5.8,20,9.3,25.2c0,0,9.3,3.2,16-6.4c0,0,8.4-11.7,3.9-24.9
		C344.7,177.1,341.3,165.6,328.6,167.9z"/>
	<path class="st3" d="M296.5,176.9c0,0-7.9,2.8-7.1,16.3c0,0,0.9,5.5,4,6.1c0,0,5,1.6,8.4-8.3C301.8,191,305.1,177.2,296.5,176.9z"
		/>
	<path class="st3" d="M330.9,177.9c-0.5,0.1-1,0.4-1.6,0.8c-1,0.7-1.8,1.5-2.5,2.5c-2.6,3.4-3.3,7.9-3.1,12.1c0,0.3,0,0.6,0,0.9
		c0,0,0.9,5.5,4,6.1c0,0,5,1.6,8.4-8.3c0.6-1.9,0.7-4.2,0.6-6.1c-0.1-3.2-1-6.4-4.2-7.7C332,177.9,331.4,177.8,330.9,177.9z"/>
</g>
</svg>
